<svg width="221" height="66" viewBox="0 0 221 66" fill="none" xmlns="http://www.w3.org/2000/svg">
<path d="M99.3466 22.429V26.7608H92.5395V45H87.4585V26.7608H80.6514V22.429H99.3466ZM115.053 45C114.814 44.2183 114.542 43.4149 114.238 42.5898C113.956 41.7647 113.674 40.9396 113.392 40.1145H104.598C104.315 40.9396 104.022 41.7647 103.718 42.5898C103.436 43.4149 103.176 44.2183 102.937 45H97.6603C98.5071 42.5681 99.3105 40.3208 100.07 38.258C100.83 36.1952 101.569 34.2519 102.285 32.428C103.024 30.6041 103.74 28.8778 104.435 27.2493C105.151 25.5991 105.89 23.9923 106.65 22.429H111.503C112.241 23.9923 112.968 25.5991 113.685 27.2493C114.401 28.8778 115.118 30.6041 115.834 32.428C116.573 34.2519 117.322 36.1952 118.082 38.258C118.842 40.3208 119.645 42.5681 120.492 45H115.053ZM108.962 27.5425C108.854 27.8682 108.691 28.3133 108.474 28.8778C108.256 29.4424 108.007 30.0938 107.724 30.832C107.442 31.5703 107.127 32.3846 106.78 33.2748C106.454 34.165 106.118 35.0987 105.77 36.0758H112.187C111.839 35.0987 111.503 34.165 111.177 33.2748C110.851 32.3846 110.536 31.5703 110.232 30.832C109.95 30.0938 109.7 29.4424 109.483 28.8778C109.266 28.3133 109.092 27.8682 108.962 27.5425ZM137.028 22.429H142.109V45H137.028V35.4244H128.494V45H123.414V22.429H128.494V31.06H137.028V22.429ZM145.378 40.7008H148.635C149.438 39.3111 150.068 37.9323 150.524 36.5644C150.98 35.1964 151.317 33.8068 151.534 32.3954C151.772 30.984 151.914 29.5292 151.957 28.031C152.022 26.5328 152.055 24.9586 152.055 23.3084V22.429H166.972V40.7008H170.848V51.0255H165.962V45H150.263V51.0255H145.378V40.7008ZM156.843 26.7282C156.799 27.9007 156.723 29.1058 156.615 30.3435C156.506 31.5812 156.343 32.808 156.126 34.0239C155.909 35.2181 155.616 36.3907 155.247 37.5415C154.899 38.6706 154.454 39.7237 153.911 40.7008H162.021V26.7282H156.843ZM174.113 45V22.429H189.356V26.6957H179.194V31.1252H188.216V35.2941H179.194V40.7333H190.105V45H174.113ZM199.858 22.429C200.249 23.1455 200.694 24.0358 201.193 25.0997C201.715 26.142 202.247 27.2819 202.789 28.5196C203.354 29.7355 203.908 30.984 204.45 32.2651C204.993 33.5462 205.504 34.7513 205.981 35.8804C206.459 34.7513 206.969 33.5462 207.512 32.2651C208.055 30.984 208.598 29.7355 209.141 28.5196C209.705 27.2819 210.237 26.142 210.736 25.0997C211.258 24.0358 211.714 23.1455 212.104 22.429H216.729C216.947 23.9272 217.142 25.61 217.316 27.4773C217.511 29.323 217.674 31.2555 217.804 33.2748C217.956 35.2724 218.086 37.2809 218.195 39.3002C218.325 41.3196 218.434 43.2195 218.521 45H213.57C213.505 42.807 213.418 40.4185 213.31 37.8346C213.201 35.2507 213.038 32.6451 212.821 30.0178C212.43 30.9298 211.996 31.9394 211.518 33.0468C211.04 34.1542 210.563 35.2616 210.085 36.3689C209.629 37.4763 209.184 38.5403 208.75 39.5608C208.315 40.5596 207.946 41.4173 207.642 42.1338H204.092C203.788 41.4173 203.419 40.5596 202.985 39.5608C202.551 38.5403 202.095 37.4763 201.617 36.3689C201.161 35.2616 200.694 34.1542 200.216 33.0468C199.739 31.9394 199.304 30.9298 198.914 30.0178C198.696 32.6451 198.534 35.2507 198.425 37.8346C198.316 40.4185 198.23 42.807 198.164 45H193.214C193.301 43.2195 193.398 41.3196 193.507 39.3002C193.637 37.2809 193.768 35.2724 193.898 33.2748C194.05 31.2555 194.213 29.323 194.386 27.4773C194.582 25.61 194.788 23.9272 195.005 22.429H199.858Z" fill="white"/>
<rect x="50.1493" width="13.8507" height="14.3284" fill="#1F6DE1"/>
<rect x="50.1493" y="17.1938" width="13.8507" height="14.3284" fill="#1F6DE1"/>
<rect x="50.1493" y="34.3882" width="13.8507" height="14.3284" fill="#1F6DE1"/>
<rect x="33.4329" width="13.8507" height="14.3284" fill="#1F6DE1"/>
<rect x="33.4329" y="17.1938" width="13.8507" height="14.3284" fill="#1F6DE1"/>
<rect x="33.4329" y="34.3882" width="13.8507" height="14.3284" fill="white"/>
<rect x="33.4329" y="51.582" width="13.8507" height="14.3284" fill="white"/>
<rect x="16.7164" width="13.8507" height="14.3284" fill="#1F6DE1"/>
<rect x="16.7164" y="17.1938" width="13.8507" height="14.3284" fill="white"/>
<rect x="16.7164" y="34.3882" width="13.8507" height="14.3284" fill="#1F6DE1"/>
<rect x="16.7164" y="51.582" width="13.8507" height="14.3284" fill="white"/>
<rect y="17.1938" width="13.8507" height="14.3284" fill="white"/>
<rect y="34.3882" width="13.8507" height="14.3284" fill="white"/>
</svg>
