<svg width="60" height="56" viewBox="0 0 60 56" fill="none" xmlns="http://www.w3.org/2000/svg">
<path fill-rule="evenodd" clip-rule="evenodd" d="M0.0322266 20.1943C0.0322266 19.039 0.968795 18.1024 2.12411 18.1024H57.9077C59.063 18.1024 59.9995 19.039 59.9995 20.1943C59.9995 21.3496 59.063 22.2862 57.9077 22.2862H2.12411C0.968795 22.2862 0.0322266 21.3496 0.0322266 20.1943Z" fill="#1F6DE1"/>
<path fill-rule="evenodd" clip-rule="evenodd" d="M12.0353 4.23741C12.8064 4.20993 13.6318 4.18377 14.5038 4.18377H45.4915C50.458 4.18377 52.7409 4.84957 53.9425 6.03316C55.1334 7.2062 55.8115 9.43455 55.8115 14.3364V26.6367C55.8115 27.792 56.748 28.7285 57.9034 28.7285C59.0587 28.7285 59.9952 27.792 59.9952 26.6367V14.3364C59.9952 9.44817 59.4182 5.55428 56.8785 3.05258C54.3495 0.561432 50.4266 0 45.4915 0H14.5038C13.5435 0 12.6474 0.029119 11.8631 0.0571283L11.818 0.0592268C7.78466 0.290529 4.52818 1.16073 2.45813 3.76887C0.480884 6.26007 0 9.86056 0 14.3085V37.2355C0 42.1237 0.577042 46.0176 3.11673 48.5193C5.64571 51.0105 9.56868 51.5719 14.5038 51.5719H28.7564C29.9117 51.5719 30.8483 50.6353 30.8483 49.48C30.8483 48.3247 29.9117 47.3881 28.7564 47.3881H14.5038C9.53725 47.3881 7.25429 46.7223 6.05272 45.5387C4.86187 44.3657 4.18377 42.1373 4.18377 37.2355V14.3085C4.18377 9.88684 4.73492 7.63006 5.73516 6.36982C6.6408 5.22877 8.30247 4.45416 12.0353 4.23741Z" fill="#1F6DE1"/>
<path fill-rule="evenodd" clip-rule="evenodd" d="M11.1895 36.9294C11.1895 35.774 12.126 34.8375 13.2813 34.8375H24.438C25.5934 34.8375 26.5299 35.774 26.5299 36.9294C26.5299 38.0847 25.5934 39.0212 24.438 39.0212H13.2813C12.126 39.0212 11.1895 38.0847 11.1895 36.9294Z" fill="#1F6DE1"/>
<path fill-rule="evenodd" clip-rule="evenodd" d="M46.7515 33.4429C41.7428 33.4429 37.6867 37.499 37.6867 42.5077C37.6867 44.2074 38.1623 45.8082 38.9931 47.1554L39.0107 47.1839L39.0104 47.184C40.5719 49.809 43.4439 51.5725 46.7515 51.5725C50.0591 51.5725 52.9312 49.809 54.4926 47.184L54.5097 47.1553L54.5099 47.1554C55.3407 45.8082 55.8163 44.2074 55.8163 42.5077C55.8163 37.499 51.7603 33.4429 46.7515 33.4429ZM33.5029 42.5077C33.5029 35.1883 39.4321 29.2591 46.7515 29.2591C54.0709 29.2591 60.0001 35.1883 60.0001 42.5077C60.0001 44.986 59.3075 47.3405 58.0797 49.3372C55.7902 53.1752 51.5823 55.7563 46.7515 55.7563C41.9208 55.7563 37.7129 53.1752 35.4233 49.3372C34.1956 47.3405 33.5029 44.986 33.5029 42.5077Z" fill="#1F6DE1"/>
<path fill-rule="evenodd" clip-rule="evenodd" d="M52.6423 38.3526C53.4268 39.2008 53.3751 40.5243 52.527 41.3088L46.586 46.8034C45.7611 47.5663 44.4809 47.5414 43.6864 46.7469L40.9252 43.9856C40.1083 43.1686 40.1083 41.8441 40.9252 41.0272C41.7421 40.2103 43.0667 40.2103 43.8836 41.0272L45.2223 42.3659L49.6862 38.2373C50.5344 37.4528 51.8579 37.5045 52.6423 38.3526Z" fill="#1F6DE1"/>
</svg>
