<svg width="60" height="59" viewBox="0 0 60 59" fill="none" xmlns="http://www.w3.org/2000/svg">
<path fill-rule="evenodd" clip-rule="evenodd" d="M15.6375 18.7483C11.3291 18.7483 7.80541 22.272 7.80541 26.5804V34.5836C9.21743 34.021 10.7544 33.71 12.359 33.71C19.1873 33.71 24.7187 39.2414 24.7187 46.0697C24.7187 48.1713 24.1848 50.1775 23.2274 51.9243H45.509C49.8174 51.9243 53.3412 48.4006 53.3412 44.0921V42.9472H50.3488C46.6812 42.9472 43.1212 40.2653 42.7846 36.3034C42.5745 34.06 43.4287 31.9641 44.9087 30.5094C46.24 29.1516 48.0651 28.3758 50.0365 28.3758H53.3412V26.5804C53.3412 22.272 49.8174 18.7483 45.509 18.7483H15.6375ZM3.90234 26.5804C3.90234 20.1164 9.1735 14.8452 15.6375 14.8452H45.509C51.9731 14.8452 57.2442 20.1164 57.2442 26.5804V30.3274C57.2442 31.4052 56.3705 32.2789 55.2927 32.2789H50.0365C49.1023 32.2789 48.2806 32.6412 47.6878 33.25L47.6528 33.285C46.9605 33.9608 46.5738 34.923 46.6711 35.9449L46.6733 35.9678L46.6732 35.9678C46.8109 37.6201 48.3996 39.0442 50.3488 39.0442H55.2927C56.3705 39.0442 57.2442 39.9179 57.2442 40.9957V44.0921C57.2442 50.5561 51.9731 55.8274 45.509 55.8274H19.2024C18.3819 55.8274 17.649 55.3141 17.3685 54.5431C17.0879 53.772 17.3196 52.9078 17.9483 52.3806C18.5804 51.8504 19.1377 51.1916 19.5723 50.4466L19.5969 50.4056C20.3719 49.1487 20.8156 47.6553 20.8156 46.0697C20.8156 41.397 17.0317 37.6131 12.359 37.6131C10.3774 37.6131 8.53806 38.3074 7.07029 39.4774C6.48416 39.9446 5.68223 40.0348 5.00694 39.7095C4.33165 39.3842 3.90234 38.7009 3.90234 37.9513V26.5804Z" fill="#1F6DE1"/>
<path fill-rule="evenodd" clip-rule="evenodd" d="M36.0376 6.90903C36.0376 4.80784 33.9376 3.3653 31.9935 4.10217L11.3323 11.9087C9.20699 12.7133 7.80541 14.7424 7.80541 17.031V28.9222C7.80541 30 6.93168 30.8737 5.85388 30.8737C4.77607 30.8737 3.90234 30 3.90234 28.9222V17.031C3.90234 13.1271 6.30021 9.63959 9.95099 8.25821L30.6102 0.452477C35.1192 -1.25657 39.9407 2.0888 39.9407 6.90903V16.7968C39.9407 17.8746 39.0669 18.7483 37.9891 18.7483C36.9113 18.7483 36.0376 17.8746 36.0376 16.7968V6.90903Z" fill="#1F6DE1"/>
<path fill-rule="evenodd" clip-rule="evenodd" d="M50.0345 32.2794C49.1002 32.2794 48.2785 32.6416 47.6858 33.2504L47.6508 33.2855C46.9585 33.9613 46.5718 34.9235 46.6691 35.9453L46.6713 35.9683L46.6711 35.9683C46.8088 37.6205 48.3976 39.0446 50.3468 39.0446H55.4019C55.8225 39.0175 56.0973 38.6886 56.0973 38.3422V32.9818C56.0973 32.6354 55.8225 32.3065 55.4019 32.2794H50.0345ZM44.9066 30.5099C46.2379 29.1521 48.0631 28.3763 50.0345 28.3763H55.4467C55.47 28.3763 55.4932 28.3767 55.5164 28.3776C57.9961 28.4661 60.0003 30.4728 60.0003 32.9818V38.3422C60.0003 40.8513 57.9961 42.8579 55.5164 42.9465C55.4932 42.9473 55.47 42.9477 55.4467 42.9477H50.3468C46.6791 42.9477 43.1191 40.2658 42.7825 36.3039C42.5724 34.0605 43.4266 31.9646 44.9066 30.5099Z" fill="#1F6DE1"/>
<path fill-rule="evenodd" clip-rule="evenodd" d="M15.6123 27.8554C15.6123 26.7776 16.486 25.9039 17.5638 25.9039H35.7781C36.8559 25.9039 37.7297 26.7776 37.7297 27.8554C37.7297 28.9332 36.8559 29.8069 35.7781 29.8069H17.5638C16.486 29.8069 15.6123 28.9332 15.6123 27.8554Z" fill="#1F6DE1"/>
<path fill-rule="evenodd" clip-rule="evenodd" d="M12.3597 37.6131C10.3782 37.6131 8.53878 38.3074 7.07101 39.4774L7.06762 39.4801L7.06762 39.4801C5.12863 41.0186 3.90306 43.4014 3.90306 46.0697C3.90306 47.6553 4.34676 49.1487 5.12181 50.4056L5.13818 50.4321L5.13796 50.4322C6.59461 52.8811 9.274 54.5263 12.3597 54.5263C14.5004 54.5263 16.4306 53.7456 17.8976 52.4253C17.9145 52.4101 17.9316 52.3952 17.949 52.3806C18.5812 51.8504 19.1384 51.1916 19.573 50.4466L19.5976 50.4056C20.3726 49.1487 20.8163 47.6553 20.8163 46.0697C20.8163 41.397 17.0324 37.6131 12.3597 37.6131ZM4.63988 36.4239C6.76266 34.7325 9.45018 33.71 12.3597 33.71C19.188 33.71 24.7194 39.2414 24.7194 46.0697C24.7194 48.3787 24.0749 50.5727 22.9323 52.434C22.2816 53.544 21.4474 54.5353 20.4834 55.349C18.3107 57.2935 15.4631 58.4294 12.3597 58.4294C7.85305 58.4294 3.92743 56.0215 1.79146 52.441C0.646097 50.5782 0 48.3816 0 46.0697C0 42.1816 1.79209 38.6844 4.63988 36.4239Z" fill="#1F6DE1"/>
<path fill-rule="evenodd" clip-rule="evenodd" d="M17.8551 42.1934C18.587 42.9847 18.5388 44.2194 17.7475 44.9512L12.2051 50.0771C11.4356 50.7888 10.2413 50.7656 9.50013 50.0244L6.92413 47.4484C6.16201 46.6863 6.16201 45.4506 6.92413 44.6885C7.68625 43.9264 8.92189 43.9264 9.68401 44.6885L10.9329 45.9374L15.0974 42.0858C15.8886 41.354 17.1233 41.4021 17.8551 42.1934Z" fill="#1F6DE1"/>
</svg>
