<svg width="60" height="60" viewBox="0 0 60 60" fill="none" xmlns="http://www.w3.org/2000/svg">
<path d="M22.925 42.5H32.5V15C32.5 14.337 32.2366 13.7011 31.7678 13.2322C31.2989 12.7634 30.663 12.5 30 12.5H12.5" stroke="black" stroke-width="2" stroke-linecap="round" stroke-linejoin="round"/>
<path d="M7.5 32.5V40C7.5 40.663 7.76339 41.2989 8.23223 41.7678C8.70107 42.2366 9.33696 42.5 10 42.5H12.175" stroke="black" stroke-width="2" stroke-linecap="round" stroke-linejoin="round"/>
<path d="M37.175 42.4998H32.5V17.4998H43.125C43.6861 17.479 44.2379 17.6478 44.6914 17.9788C45.1449 18.3099 45.4738 18.784 45.625 19.3248L47.5 26.2498L50.6 27.0248C51.1547 27.1616 51.6458 27.4844 51.9915 27.9392C52.3372 28.3941 52.5166 28.9537 52.5 29.5248V39.9998C52.5 40.6628 52.2366 41.2987 51.7678 41.7675C51.2989 42.2364 50.663 42.4998 50 42.4998H47.775" stroke="black" stroke-width="2" stroke-linecap="round" stroke-linejoin="round"/>
<path d="M7.5 22.5H22.5M17.5 37.5C16.5111 37.5 15.5444 37.7932 14.7221 38.3427C13.8999 38.8921 13.259 39.673 12.8806 40.5866C12.5022 41.5002 12.4031 42.5055 12.5961 43.4755C12.789 44.4454 13.2652 45.3363 13.9645 46.0355C14.6637 46.7348 15.5546 47.211 16.5245 47.4039C17.4945 47.5969 18.4998 47.4978 19.4134 47.1194C20.327 46.741 21.1079 46.1001 21.6573 45.2779C22.2068 44.4556 22.5 43.4889 22.5 42.5C22.5 41.1739 21.9732 39.9021 21.0355 38.9645C20.0979 38.0268 18.8261 37.5 17.5 37.5ZM42.5 37.5C41.5111 37.5 40.5444 37.7932 39.7221 38.3427C38.8999 38.8921 38.259 39.673 37.8806 40.5866C37.5022 41.5002 37.4031 42.5055 37.5961 43.4755C37.789 44.4454 38.2652 45.3363 38.9645 46.0355C39.6637 46.7348 40.5546 47.211 41.5245 47.4039C42.4945 47.5969 43.4998 47.4978 44.4134 47.1194C45.327 46.741 46.1079 46.1001 46.6573 45.2779C47.2068 44.4556 47.5 43.4889 47.5 42.5C47.5 41.1739 46.9732 39.9021 46.0355 38.9645C45.0979 38.0268 43.8261 37.5 42.5 37.5Z" stroke="black" stroke-width="2" stroke-linecap="round" stroke-linejoin="round"/>
</svg>
