<svg width="60" height="62" viewBox="0 0 60 62" fill="none" xmlns="http://www.w3.org/2000/svg">
<path fill-rule="evenodd" clip-rule="evenodd" d="M34.7959 12.6012C34.7959 11.4121 35.7598 10.4482 36.9489 10.4482H57.8473C59.0364 10.4482 60.0003 11.4121 60.0003 12.6012C60.0003 13.7902 59.0364 14.7542 57.8473 14.7542H36.9489C35.7598 14.7542 34.7959 13.7902 34.7959 12.6012Z" fill="#1F6DE1"/>
<path fill-rule="evenodd" clip-rule="evenodd" d="M0 12.6026C0 11.4135 0.96393 10.4496 2.153 10.4496H23.0514C24.2405 10.4496 25.2044 11.4135 25.2044 12.6026C25.2044 13.7916 24.2405 14.7556 23.0514 14.7556H2.153C0.96393 14.7556 0 13.7916 0 12.6026Z" fill="#1F6DE1"/>
<path fill-rule="evenodd" clip-rule="evenodd" d="M34.7959 40.4192C34.7959 39.2301 35.7598 38.2662 36.9489 38.2662H57.8473C59.0364 38.2662 60.0003 39.2301 60.0003 40.4192C60.0003 41.6082 59.0364 42.5722 57.8473 42.5722H36.9489C35.7598 42.5722 34.7959 41.6082 34.7959 40.4192Z" fill="#1F6DE1"/>
<path fill-rule="evenodd" clip-rule="evenodd" d="M34.7959 57.8141C34.7959 56.6251 35.7598 55.6611 36.9489 55.6611H57.8473C59.0364 55.6611 60.0003 56.6251 60.0003 57.8141C60.0003 59.0032 59.0364 59.9671 57.8473 59.9671H36.9489C35.7598 59.9671 34.7959 59.0032 34.7959 57.8141Z" fill="#1F6DE1"/>
<path fill-rule="evenodd" clip-rule="evenodd" d="M47.4792 0C48.6682 0 49.6322 0.96393 49.6322 2.153V23.0227C49.6322 24.2118 48.6682 25.1757 47.4792 25.1757C46.2901 25.1757 45.3262 24.2118 45.3262 23.0227V2.153C45.3262 0.96393 46.2901 0 47.4792 0Z" fill="#1F6DE1"/>
<path fill-rule="evenodd" clip-rule="evenodd" d="M24.5749 37.1751C25.4151 38.0165 25.4142 39.3797 24.5728 40.2199L3.67435 61.0896C2.83297 61.9298 1.46977 61.9289 0.629552 61.0875C-0.210667 60.2462 -0.20973 58.883 0.631645 58.0427L21.5301 37.173C22.3714 36.3328 23.7346 36.3337 24.5749 37.1751Z" fill="#1F6DE1"/>
<path fill-rule="evenodd" clip-rule="evenodd" d="M0.629552 37.1751C1.46977 36.3337 2.83297 36.3328 3.67435 37.173L24.5728 58.0427C25.4142 58.883 25.4151 60.2462 24.5749 61.0875C23.7346 61.9289 22.3714 61.9298 21.5301 61.0896L0.631645 40.2199C-0.20973 39.3797 -0.210667 38.0165 0.629552 37.1751Z" fill="#1F6DE1"/>
</svg>
