<svg width="60" height="60" viewBox="0 0 60 60" fill="none" xmlns="http://www.w3.org/2000/svg">
<path d="M48.2 25.0002C48.2 26.9002 46.525 28.5002 45.975 30.2002C45.425 31.9002 45.8 34.2252 44.725 35.7002C43.65 37.1752 41.35 37.5002 40 38.6002C38.65 39.7002 37.5 41.7502 35.75 42.3252C34 42.9002 32.025 41.8002 30.125 41.8002C28.225 41.8002 26.2 42.8752 24.5 42.3252C22.8 41.7752 21.725 39.6502 20.25 38.6002C18.775 37.5502 16.475 37.1752 15.4 35.7002C14.325 34.2252 14.725 31.9502 14.15 30.2002C13.575 28.4502 11.8 26.9002 11.8 25.0002C11.8 23.1002 13.475 21.5002 14.025 19.8002C14.575 18.1002 14.2 15.7752 15.275 14.3002C16.35 12.8252 18.65 12.5002 20.125 11.4002C21.6 10.3002 22.5 8.25016 24.375 7.67516C26.25 7.10016 28.1 8.20016 30 8.20016C31.9 8.20016 33.925 7.12516 35.625 7.67516C37.325 8.22516 38.4 10.3502 40 11.4002C41.6 12.4502 43.775 12.8252 44.85 14.3002C45.925 15.7752 45.525 18.0502 46.1 19.8002C46.675 21.5502 48.2 23.1002 48.2 25.0002ZM30 17.5002C28.5167 17.5002 27.0666 17.94 25.8333 18.7641C24.5999 19.5883 23.6386 20.7596 23.071 22.13C22.5033 23.5005 22.3548 25.0085 22.6442 26.4633C22.9335 27.9182 23.6479 29.2546 24.6967 30.3035C25.7456 31.3524 27.082 32.0667 28.5369 32.3561C29.9917 32.6454 31.4997 32.4969 32.8702 31.9293C34.2406 31.3616 35.412 30.4003 36.2361 29.1669C37.0602 27.9336 37.5 26.4835 37.5 25.0002C37.5 23.011 36.7099 21.1034 35.3034 19.6969C33.8968 18.2903 31.9892 17.5002 30 17.5002Z" stroke="black" stroke-width="2" stroke-linecap="round" stroke-linejoin="round"/>
<path d="M35.125 42.7499L40 52.4999L44.95 47.4249L52.5 47.4999L45.475 33.5499V33.5249" stroke="black" stroke-width="2" stroke-linecap="round" stroke-linejoin="round"/>
<path d="M24.875 42.7499L20 52.4999L15.05 47.4249L7.5 47.4999L14.525 33.5499V33.5249" stroke="black" stroke-width="2" stroke-linecap="round" stroke-linejoin="round"/>
</svg>
