<svg width="60" height="60" viewBox="0 0 60 60" fill="none" xmlns="http://www.w3.org/2000/svg">
<path d="M30 37.5C38.2843 37.5 45 30.7843 45 22.5C45 14.2157 38.2843 7.5 30 7.5C21.7157 7.5 15 14.2157 15 22.5C15 30.7843 21.7157 37.5 30 37.5Z" stroke="black" stroke-width="2" stroke-linecap="round" stroke-linejoin="round"/>
<path d="M20 34.2498C17.0173 35.6646 14.4956 37.8942 12.7262 40.6811C10.9567 43.468 10.0116 46.6986 10 49.9998C10 50.6628 10.2634 51.2987 10.7322 51.7676C11.2011 52.2364 11.837 52.4998 12.5 52.4998H47.5C48.163 52.4998 48.7989 52.2364 49.2678 51.7676C49.7366 51.2987 50 50.6628 50 49.9998C50.0026 46.6859 49.0641 43.4393 47.2938 40.6378C45.5235 37.8363 42.9942 35.5951 40 34.1748" stroke="black" stroke-width="2" stroke-linecap="round" stroke-linejoin="round"/>
</svg>
