<svg width="60" height="60" viewBox="0 0 60 60" fill="none" xmlns="http://www.w3.org/2000/svg">
<path d="M42.375 37.5H42.625" stroke="black" stroke-width="3" stroke-linecap="round" stroke-linejoin="round"/>
<path d="M52.5 25V50C52.5 50.663 52.2366 51.2989 51.7678 51.7678C51.2989 52.2366 50.663 52.5 50 52.5H10C9.33696 52.5 8.70107 52.2366 8.23223 51.7678C7.76339 51.2989 7.5 50.663 7.5 50V25C7.5 24.337 7.76339 23.7011 8.23223 23.2322C8.70107 22.7634 9.33696 22.5 10 22.5H50C50.663 22.5 51.2989 22.7634 51.7678 23.2322C52.2366 23.7011 52.5 24.337 52.5 25ZM43.025 22.5L47.5 16.1L35.225 7.5L24.7 22.5H43.025ZM22.725 7.5L12.2 22.5H24.7L31.1 13.375L22.725 7.5Z" stroke="black" stroke-width="2" stroke-linecap="round" stroke-linejoin="round"/>
</svg>
